<?xml version="1.0" encoding="UTF-8"?>
<svg id="Capa_1" xmlns="http://www.w3.org/2000/svg" version="1.1" xmlns:xlink="http://www.w3.org/1999/xlink" viewBox="0 0 602 248">
  <!-- Generator: Adobe Illustrator 30.4.0, SVG Export Plug-In . SVG Version: 2.1.4 Build 226)  -->
  <defs>
    <style>
      .st0 {
        fill: url(#Degradado_sin_nombre_1959);
      }

      .st1 {
        fill: #fff;
      }

      .st2 {
        fill: url(#Naranja_amarillo);
      }

      .st3 {
        fill: none;
      }

      .st4 {
        fill: url(#Naranja_amarillo2);
      }

      .st5 {
        fill: url(#Naranja_amarillo1);
      }

      .st6 {
        fill: #9baf9b;
      }
    </style>
    <linearGradient id="Naranja_amarillo" data-name="Naranja, amarillo" x1="441.71" y1="116.5" x2="567.46" y2="116.5" gradientUnits="userSpaceOnUse">
      <stop offset="0" stop-color="#ffef26"/>
      <stop offset=".02" stop-color="#fee921"/>
      <stop offset=".1" stop-color="#fdd70e"/>
      <stop offset=".19" stop-color="#fdcb03"/>
      <stop offset=".28" stop-color="#fdc800"/>
      <stop offset=".67" stop-color="#f18f34"/>
      <stop offset=".89" stop-color="#e95f32"/>
      <stop offset="1" stop-color="#e3312d"/>
    </linearGradient>
    <linearGradient id="Naranja_amarillo1" data-name="Naranja, amarillo" x1="482.9" y1="21.97" x2="526.27" y2="21.97" xlink:href="#Naranja_amarillo"/>
    <linearGradient id="Naranja_amarillo2" data-name="Naranja, amarillo" x1="514.25" y1="51.88" x2="601" y2="51.88" xlink:href="#Naranja_amarillo"/>
    <linearGradient id="Degradado_sin_nombre_1959" data-name="Degradado sin nombre 1959" x1="464.91" y1="39.6" x2="566.67" y2="141.36" gradientUnits="userSpaceOnUse">
      <stop offset="0" stop-color="#ff9600"/>
      <stop offset=".02" stop-color="#ff9604"/>
      <stop offset=".09" stop-color="#ff9610"/>
      <stop offset=".16" stop-color="#ff9614"/>
      <stop offset=".6" stop-color="#e65a64"/>
      <stop offset="1" stop-color="#be146e"/>
    </linearGradient>
  </defs>
  <g>
    <path class="st1" d="M3.76,116.93v-.43c0-32.6,25.31-59.44,60.8-59.44,17.53,0,29.86,4.69,39.59,12.78,2.16,1.7,5.19,5.54,5.19,11.08,0,8.1-6.71,14.49-14.93,14.49-4.33,0-7.57-1.7-9.52-3.19-5.84-4.47-11.9-7.24-20.55-7.24-16.44,0-28.13,14.27-28.13,31.1v.43c0,17.47,11.47,31.53,29.43,31.53,8.65,0,15.36-2.98,21.64-7.88,1.73-1.28,4.98-2.98,8.87-2.98,7.79,0,13.85,6.18,13.85,13.85,0,4.26-1.95,7.67-4.76,10.23-9.74,8.73-22.07,14.7-41.11,14.7-34.83,0-60.37-26.42-60.37-59.01Z"/>
    <path class="st1" d="M125.17,34.06c0-8.95,7.36-16.19,16.44-16.19s16.44,7.24,16.44,16.19v42.61c7.57-9.59,17.31-18.32,33.97-18.32,24.88,0,39.38,16.19,39.38,42.39v59.01c0,8.95-7.36,16.19-16.44,16.19s-16.44-7.24-16.44-16.19v-48.79c0-15.34-7.36-23.22-19.91-23.22s-20.55,7.88-20.55,23.22v48.79c0,8.95-7.36,16.19-16.44,16.19s-16.44-7.24-16.44-16.19V34.06Z"/>
    <path class="st1" d="M242.17,141v-.43c0-24.93,19.19-36.43,46.58-36.43,11.64,0,20.06,1.92,28.25,4.69v-1.92c0-13.42-8.41-20.88-24.8-20.88-9.06,0-16.39,1.28-22.64,3.2-1.94.64-3.23.85-4.74.85-7.55,0-13.59-5.75-13.59-13.21,0-5.75,3.67-10.65,8.84-12.57,10.35-3.83,21.56-5.97,36.88-5.97,17.9,0,30.84,4.69,39.03,12.78,8.63,8.52,12.51,21.09,12.51,36.43v51.98c0,8.73-7.12,15.55-15.96,15.55-9.49,0-15.74-6.6-15.74-13.42v-.21c-7.98,8.73-18.98,14.49-34.93,14.49-21.78,0-39.68-12.36-39.68-34.94ZM317.43,133.55v-5.75c-5.61-2.56-12.94-4.26-20.92-4.26-14.02,0-22.64,5.54-22.64,15.76v.43c0,8.73,7.33,13.85,17.9,13.85,15.31,0,25.66-8.31,25.66-20.03Z"/>
    <path class="st1" d="M374.33,141.64v-54.11h-1.07c-7.72,0-13.93-6.18-13.93-13.85s6.22-13.85,13.93-13.85h1.07v-14.27c0-8.95,7.29-16.19,16.29-16.19s16.29,7.24,16.29,16.19v14.27h14.36c7.72,0,13.93,6.18,13.93,13.85s-6.22,13.85-13.93,13.85h-14.36v48.79c0,7.46,3.22,11.08,10.5,11.08,1.07,0,3.22-.21,3.86-.21,7.29,0,13.5,5.97,13.5,13.42,0,5.75-3.86,10.44-8.36,12.14-6,2.34-11.58,3.2-18.65,3.2-19.94,0-33.44-7.88-33.44-34.3Z"/>
  </g>
  <g>
    <path class="st6" d="M3.37,223.85h3.01v17.13h-3.01v-17.13Z"/>
    <path class="st6" d="M16,223.85h2.79l9.18,11.85v-11.85h2.96v17.13h-2.52l-9.45-12.19v12.19h-2.96v-17.13Z"/>
    <path class="st6" d="M44.57,226.64h-5.46v-2.79h13.93v2.79h-5.46v14.34h-3.01v-14.34Z"/>
    <path class="st6" d="M61.21,223.85h12.7v2.69h-9.69v4.45h8.59v2.72h-8.59v4.58h9.81v2.69h-12.83v-17.13Z"/>
    <path class="st6" d="M82.65,223.85h3.01v14.39h9.01v2.74h-12.02v-17.13Z"/>
    <path class="st6" d="M102.99,223.85h3.01v17.13h-3.01v-17.13Z"/>
    <path class="st6" d="M114.86,232.47v-.05c0-4.8,3.67-8.86,8.84-8.86,2.99,0,4.82.83,6.58,2.32l-1.91,2.28c-1.32-1.1-2.62-1.81-4.8-1.81-3.16,0-5.56,2.74-5.56,6.02v.05c0,3.52,2.32,6.12,5.82,6.12,1.62,0,3.08-.51,4.14-1.3v-3.18h-4.38v-2.64h7.29v7.2c-1.69,1.44-4.11,2.67-7.15,2.67-5.36,0-8.88-3.82-8.88-8.81Z"/>
    <path class="st6" d="M139.85,223.85h12.7v2.69h-9.69v4.45h8.59v2.72h-8.59v4.58h9.81v2.69h-12.83v-17.13Z"/>
    <path class="st6" d="M161.29,223.85h2.79l9.18,11.85v-11.85h2.96v17.13h-2.52l-9.45-12.19v12.19h-2.96v-17.13Z"/>
    <path class="st6" d="M184.9,232.47v-.05c0-4.87,3.65-8.86,8.81-8.86,3.18,0,5.09,1.1,6.73,2.67l-1.93,2.23c-1.4-1.27-2.84-2.1-4.82-2.1-3.23,0-5.63,2.67-5.63,6.02v.05c0,3.35,2.37,6.07,5.65,6.07,2.1,0,3.45-.83,4.92-2.2l1.93,1.96c-1.79,1.86-3.74,3.04-6.95,3.04-5.02,0-8.71-3.89-8.71-8.81Z"/>
    <path class="st6" d="M208.96,223.85h3.01v17.13h-3.01v-17.13Z"/>
    <path class="st6" d="M227.66,223.73h2.79l7.54,17.25h-3.18l-1.74-4.14h-8.1l-1.76,4.14h-3.08l7.54-17.25ZM231.97,234.18l-2.96-6.85-2.94,6.85h5.9Z"/>
    <path class="st6" d="M257.6,232.47v-.05c0-4.87,3.65-8.86,8.81-8.86,3.18,0,5.09,1.1,6.73,2.67l-1.93,2.23c-1.4-1.27-2.84-2.1-4.82-2.1-3.23,0-5.63,2.67-5.63,6.02v.05c0,3.35,2.37,6.07,5.65,6.07,2.1,0,3.45-.83,4.92-2.2l1.93,1.96c-1.79,1.86-3.74,3.04-6.95,3.04-5.02,0-8.71-3.89-8.71-8.81Z"/>
    <path class="st6" d="M280.23,232.47v-.05c0-4.82,3.72-8.86,8.98-8.86s8.93,3.99,8.93,8.81v.05c0,4.82-3.72,8.86-8.98,8.86s-8.93-3.99-8.93-8.81ZM294.99,232.47v-.05c0-3.33-2.42-6.07-5.83-6.07s-5.78,2.69-5.78,6.02v.05c0,3.33,2.42,6.07,5.82,6.07s5.78-2.69,5.78-6.02Z"/>
    <path class="st6" d="M306.84,223.85h2.79l9.18,11.85v-11.85h2.96v17.13h-2.52l-9.45-12.19v12.19h-2.96v-17.13Z"/>
    <path class="st6" d="M329.75,223.85h3.33l5.16,13.17,5.14-13.17h3.26l-7.1,17.25h-2.69l-7.1-17.25Z"/>
    <path class="st6" d="M354.61,223.85h12.7v2.69h-9.69v4.45h8.59v2.72h-8.59v4.58h9.81v2.69h-12.83v-17.13Z"/>
    <path class="st6" d="M376.06,223.85h7.64c2.15,0,3.84.64,4.94,1.71.91.93,1.42,2.2,1.42,3.7v.05c0,2.81-1.69,4.5-4.06,5.19l4.63,6.49h-3.57l-4.21-5.97h-3.77v5.97h-3.01v-17.13ZM383.47,232.34c2.15,0,3.52-1.13,3.52-2.86v-.05c0-1.83-1.32-2.84-3.55-2.84h-4.38v5.75h4.41Z"/>
    <path class="st6" d="M397.64,238.49l1.81-2.15c1.64,1.42,3.3,2.23,5.41,2.23,1.86,0,3.04-.88,3.04-2.15v-.05c0-1.22-.69-1.88-3.87-2.62-3.65-.88-5.7-1.96-5.7-5.12v-.05c0-2.94,2.45-4.97,5.85-4.97,2.5,0,4.48.76,6.22,2.15l-1.62,2.28c-1.54-1.15-3.08-1.76-4.65-1.76-1.76,0-2.79.91-2.79,2.03v.05c0,1.32.78,1.91,4.09,2.69,3.62.88,5.48,2.18,5.48,5.02v.05c0,3.21-2.52,5.12-6.12,5.12-2.62,0-5.09-.91-7.15-2.74Z"/>
    <path class="st6" d="M425.2,223.73h2.79l7.54,17.25h-3.18l-1.74-4.14h-8.1l-1.76,4.14h-3.08l7.54-17.25ZM429.51,234.18l-2.96-6.85-2.94,6.85h5.9Z"/>
    <path class="st6" d="M441.67,232.47v-.05c0-4.87,3.65-8.86,8.81-8.86,3.18,0,5.09,1.1,6.73,2.67l-1.93,2.23c-1.39-1.27-2.84-2.1-4.82-2.1-3.23,0-5.63,2.67-5.63,6.02v.05c0,3.35,2.37,6.07,5.65,6.07,2.11,0,3.45-.83,4.92-2.2l1.93,1.96c-1.79,1.86-3.75,3.04-6.95,3.04-5.02,0-8.71-3.89-8.71-8.81Z"/>
    <path class="st6" d="M465.73,223.85h3.01v17.13h-3.01v-17.13Z"/>
    <path class="st6" d="M477.6,232.47v-.05c0-4.82,3.72-8.86,8.98-8.86s8.93,3.99,8.93,8.81v.05c0,4.82-3.72,8.86-8.98,8.86s-8.93-3.99-8.93-8.81ZM492.36,232.47v-.05c0-3.33-2.42-6.07-5.83-6.07s-5.78,2.69-5.78,6.02v.05c0,3.33,2.42,6.07,5.83,6.07s5.78-2.69,5.78-6.02Z"/>
    <path class="st6" d="M504.21,223.85h2.79l9.18,11.85v-11.85h2.96v17.13h-2.52l-9.45-12.19v12.19h-2.96v-17.13Z"/>
    <path class="st6" d="M534.65,223.73h2.79l7.54,17.25h-3.18l-1.74-4.14h-8.1l-1.76,4.14h-3.08l7.54-17.25ZM538.96,234.18l-2.96-6.85-2.94,6.85h5.9Z"/>
    <path class="st6" d="M552.96,223.85h3.01v14.39h9.01v2.74h-12.02v-17.13Z"/>
  </g>
  <path class="st3" d="M504.37,84.97c-18.86,0-30.14,14.27-30.14,31.1v.43c0,16.83,12.36,31.53,30.57,31.53s30.14-14.27,30.14-31.1v-.43c0-16.83-12.36-31.53-30.57-31.53Z"/>
  <g>
    <g>
      <path class="st2" d="M563.48,94.95c-.64,2.73-3.05,4.64-5.86,4.64s-5.22-1.91-5.86-4.64c-5.95-25.34-11.86-31.26-37.19-37.21-3.17-.44-6.43-.68-9.78-.68-36.21,0-63.09,26.63-63.09,59.44v.43c0,32.81,26.67,59.01,62.66,59.01s63.09-26.63,63.09-59.44v-.43c0-7.47-1.41-14.59-3.97-21.14,0,0,0,.01,0,.02ZM534.94,116.93c0,16.83-11.27,31.1-30.14,31.1s-30.57-14.7-30.57-31.53v-.43c0-16.83,11.27-31.1,30.14-31.1s30.57,14.7,30.57,31.53v.43Z"/>
      <path class="st5" d="M483.55,22.78c13.54,3.18,17.04,6.67,20.22,20.22.2.86,1.43.86,1.63,0,3.18-13.54,6.67-17.04,20.22-20.22.86-.2.86-1.43,0-1.63-13.54-3.18-17.04-6.67-20.22-20.22-.2-.86-1.43-.86-1.63,0-3.18,13.54-6.67,17.04-20.22,20.22-.86.2-.86,1.43,0,1.63Z"/>
      <path class="st4" d="M599.71,50.24c-27.09-6.36-34.09-13.35-40.44-40.44-.41-1.73-2.87-1.73-3.27,0-6.36,27.09-13.35,34.09-40.44,40.44-1.73.41-1.73,2.86,0,3.27,27.09,6.36,34.09,13.35,40.44,40.44.41,1.73,2.87,1.73,3.27,0,6.36-27.09,13.35-34.09,40.44-40.44,1.73-.41,1.73-2.86,0-3.27Z"/>
    </g>
    <g>
      <path class="st0" d="M563.48,94.95c-.64,2.73-3.05,4.64-5.86,4.64s-5.22-1.91-5.86-4.64c-5.95-25.34-11.86-31.26-37.19-37.21-3.17-.44-6.43-.68-9.78-.68-36.21,0-63.09,26.63-63.09,59.44v.43c0,32.81,26.67,59.01,62.66,59.01s63.09-26.63,63.09-59.44v-.43c0-7.47-1.41-14.59-3.97-21.14,0,0,0,.01,0,.02ZM534.94,116.93c0,16.83-11.27,31.1-30.14,31.1s-30.57-14.7-30.57-31.53v-.43c0-16.83,11.27-31.1,30.14-31.1s30.57,14.7,30.57,31.53v.43Z"/>
      <path class="st0" d="M483.55,22.78c13.54,3.18,17.04,6.67,20.22,20.22.2.86,1.43.86,1.63,0,3.18-13.54,6.67-17.04,20.22-20.22.86-.2.86-1.43,0-1.63-13.54-3.18-17.04-6.67-20.22-20.22-.2-.86-1.43-.86-1.63,0-3.18,13.54-6.67,17.04-20.22,20.22-.86.2-.86,1.43,0,1.63Z"/>
      <path class="st0" d="M599.71,50.24c-27.09-6.36-34.09-13.35-40.44-40.44-.41-1.73-2.87-1.73-3.27,0-6.36,27.09-13.35,34.09-40.44,40.44-1.73.41-1.73,2.86,0,3.27,27.09,6.36,34.09,13.35,40.44,40.44.41,1.73,2.87,1.73,3.27,0,6.36-27.09,13.35-34.09,40.44-40.44,1.73-.41,1.73-2.86,0-3.27Z"/>
    </g>
  </g>
</svg>