<?xml version="1.0" encoding="UTF-8"?>
<svg id="Capa_1" xmlns="http://www.w3.org/2000/svg" version="1.1" xmlns:xlink="http://www.w3.org/1999/xlink" viewBox="0 0 602 248">
  <!-- Generator: Adobe Illustrator 30.4.0, SVG Export Plug-In . SVG Version: 2.1.4 Build 226)  -->
  <defs>
    <style>
      .st0 {
        fill: url(#Degradado_sin_nombre_6);
      }

      .st1 {
        fill: url(#Degradado_sin_nombre_5);
      }

      .st2 {
        fill: none;
      }

      .st3 {
        fill: url(#Degradado_sin_nombre_4);
      }

      .st4 {
        fill: #050523;
      }

      .st5 {
        fill: url(#Degradado_sin_nombre_2);
      }

      .st6 {
        fill: url(#Degradado_sin_nombre_3);
      }

      .st7 {
        fill: url(#Degradado_sin_nombre);
      }
    </style>
    <linearGradient id="Degradado_sin_nombre" data-name="Degradado sin nombre" x1="441.7" y1="96.95" x2="567.45" y2="96.95" gradientTransform="translate(0 249.32) scale(1 -1)" gradientUnits="userSpaceOnUse">
      <stop offset="0" stop-color="#ffef26"/>
      <stop offset=".02" stop-color="#fee921"/>
      <stop offset=".1" stop-color="#fdd70e"/>
      <stop offset=".19" stop-color="#fdcb03"/>
      <stop offset=".28" stop-color="#fdc800"/>
      <stop offset=".67" stop-color="#f18f34"/>
      <stop offset=".89" stop-color="#e95f32"/>
      <stop offset="1" stop-color="#e3312d"/>
    </linearGradient>
    <linearGradient id="Degradado_sin_nombre_2" data-name="Degradado sin nombre 2" x1="482.9" y1="191.48" x2="526.26" y2="191.48" gradientTransform="translate(0 249.32) scale(1 -1)" gradientUnits="userSpaceOnUse">
      <stop offset="0" stop-color="#ffef26"/>
      <stop offset=".02" stop-color="#fee921"/>
      <stop offset=".1" stop-color="#fdd70e"/>
      <stop offset=".19" stop-color="#fdcb03"/>
      <stop offset=".28" stop-color="#fdc800"/>
      <stop offset=".67" stop-color="#f18f34"/>
      <stop offset=".89" stop-color="#e95f32"/>
      <stop offset="1" stop-color="#e3312d"/>
    </linearGradient>
    <linearGradient id="Degradado_sin_nombre_3" data-name="Degradado sin nombre 3" x1="514.26" y1="161.57" x2="601.01" y2="161.57" gradientTransform="translate(0 249.32) scale(1 -1)" gradientUnits="userSpaceOnUse">
      <stop offset="0" stop-color="#ffef26"/>
      <stop offset=".02" stop-color="#fee921"/>
      <stop offset=".1" stop-color="#fdd70e"/>
      <stop offset=".19" stop-color="#fdcb03"/>
      <stop offset=".28" stop-color="#fdc800"/>
      <stop offset=".67" stop-color="#f18f34"/>
      <stop offset=".89" stop-color="#e95f32"/>
      <stop offset="1" stop-color="#e3312d"/>
    </linearGradient>
    <linearGradient id="Degradado_sin_nombre_4" data-name="Degradado sin nombre 4" x1="445.29" y1="154.22" x2="547.05" y2="52.46" gradientTransform="translate(0 249.32) scale(1 -1)" gradientUnits="userSpaceOnUse">
      <stop offset="0" stop-color="#ff9600"/>
      <stop offset=".02" stop-color="#ff9604"/>
      <stop offset=".09" stop-color="#ff9610"/>
      <stop offset=".16" stop-color="#ff9614"/>
      <stop offset=".6" stop-color="#e65a64"/>
      <stop offset="1" stop-color="#be146e"/>
    </linearGradient>
    <linearGradient id="Degradado_sin_nombre_5" data-name="Degradado sin nombre 5" x1="493.57" y1="202.5" x2="595.33" y2="100.74" gradientTransform="translate(0 249.32) scale(1 -1)" gradientUnits="userSpaceOnUse">
      <stop offset="0" stop-color="#ff9600"/>
      <stop offset=".02" stop-color="#ff9604"/>
      <stop offset=".09" stop-color="#ff9610"/>
      <stop offset=".16" stop-color="#ff9614"/>
      <stop offset=".6" stop-color="#e65a64"/>
      <stop offset="1" stop-color="#be146e"/>
    </linearGradient>
    <linearGradient id="Degradado_sin_nombre_6" data-name="Degradado sin nombre 6" x1="505.14" y1="214.07" x2="606.89" y2="112.31" gradientTransform="translate(0 249.32) scale(1 -1)" gradientUnits="userSpaceOnUse">
      <stop offset="0" stop-color="#ff9600"/>
      <stop offset=".02" stop-color="#ff9604"/>
      <stop offset=".09" stop-color="#ff9610"/>
      <stop offset=".16" stop-color="#ff9614"/>
      <stop offset=".6" stop-color="#e65a64"/>
      <stop offset="1" stop-color="#be146e"/>
    </linearGradient>
  </defs>
  <path class="st4" d="M3.76,152.81v-.43c0-32.6,25.31-59.44,60.8-59.44,17.53,0,29.86,4.69,39.59,12.78,2.16,1.7,5.19,5.54,5.19,11.08,0,8.1-6.71,14.49-14.93,14.49-4.33,0-7.57-1.7-9.52-3.19-5.84-4.47-11.9-7.24-20.55-7.24-16.44,0-28.13,14.27-28.13,31.1v.43c0,17.47,11.47,31.53,29.43,31.53,8.65,0,15.36-2.98,21.64-7.88,1.73-1.28,4.98-2.98,8.87-2.98,7.79,0,13.85,6.18,13.85,13.85,0,4.26-1.95,7.67-4.76,10.23-9.74,8.73-22.07,14.7-41.11,14.7-34.83,0-60.37-26.42-60.37-59.01v-.02Z"/>
  <path class="st4" d="M125.17,69.94c0-8.95,7.36-16.19,16.44-16.19s16.44,7.24,16.44,16.19v42.61c7.57-9.59,17.31-18.32,33.97-18.32,24.88,0,39.38,16.19,39.38,42.39v59.01c0,8.95-7.36,16.19-16.44,16.19s-16.44-7.24-16.44-16.19v-48.79c0-15.34-7.36-23.22-19.91-23.22s-20.55,7.88-20.55,23.22v48.79c0,8.95-7.36,16.19-16.44,16.19s-16.44-7.24-16.44-16.19v-125.69h0Z"/>
  <path class="st4" d="M242.17,176.88v-.43c0-24.93,19.19-36.43,46.58-36.43,11.64,0,20.06,1.92,28.25,4.69v-1.92c0-13.42-8.41-20.88-24.8-20.88-9.06,0-16.39,1.28-22.64,3.2-1.94.64-3.23.85-4.74.85-7.55,0-13.59-5.75-13.59-13.21,0-5.75,3.67-10.65,8.84-12.57,10.35-3.83,21.56-5.97,36.88-5.97,17.9,0,30.84,4.69,39.03,12.78,8.63,8.52,12.51,21.09,12.51,36.43v51.98c0,8.73-7.12,15.55-15.96,15.55-9.49,0-15.74-6.6-15.74-13.42v-.21c-7.98,8.73-18.98,14.49-34.93,14.49-21.78,0-39.68-12.36-39.68-34.94h-.01ZM317.43,169.43v-5.75c-5.61-2.56-12.94-4.26-20.92-4.26-14.02,0-22.64,5.54-22.64,15.76v.43c0,8.73,7.33,13.85,17.9,13.85,15.31,0,25.66-8.31,25.66-20.03Z"/>
  <path class="st4" d="M374.33,177.52v-54.11h-1.07c-7.72,0-13.93-6.18-13.93-13.85s6.22-13.85,13.93-13.85h1.07v-14.27c0-8.95,7.29-16.19,16.29-16.19s16.29,7.24,16.29,16.19v14.27h14.36c7.72,0,13.93,6.18,13.93,13.85s-6.22,13.85-13.93,13.85h-14.36v48.79c0,7.46,3.22,11.08,10.5,11.08,1.07,0,3.22-.21,3.86-.21,7.29,0,13.5,5.97,13.5,13.42,0,5.75-3.86,10.44-8.36,12.14-6,2.34-11.58,3.2-18.65,3.2-19.94,0-33.44-7.88-33.44-34.3h0Z"/>
  <path class="st2" d="M504.37,120.85c-18.86,0-30.14,14.27-30.14,31.1v.43c0,16.83,12.36,31.53,30.57,31.53s30.14-14.27,30.14-31.1v-.43c0-16.83-12.36-31.53-30.57-31.53Z"/>
  <g>
    <g>
      <path class="st7" d="M563.48,130.83c-.64,2.73-3.05,4.64-5.86,4.64s-5.22-1.91-5.86-4.64c-5.95-25.34-11.86-31.26-37.19-37.21-3.17-.44-6.43-.68-9.78-.68-36.21,0-63.09,26.63-63.09,59.44v.43c0,32.81,26.67,59.01,62.66,59.01s63.09-26.63,63.09-59.44v-.43c0-7.47-1.41-14.59-3.97-21.14v.02h0ZM534.94,152.81c0,16.83-11.27,31.1-30.14,31.1s-30.57-14.7-30.57-31.53v-.43c0-16.83,11.27-31.1,30.14-31.1s30.57,14.7,30.57,31.53v.43Z"/>
      <path class="st5" d="M483.55,58.66c13.54,3.18,17.04,6.67,20.22,20.22.2.86,1.43.86,1.63,0,3.18-13.54,6.67-17.04,20.22-20.22.86-.2.86-1.43,0-1.63-13.54-3.18-17.04-6.67-20.22-20.22-.2-.86-1.43-.86-1.63,0-3.18,13.54-6.67,17.04-20.22,20.22-.86.2-.86,1.43,0,1.63Z"/>
      <path class="st6" d="M599.71,86.12c-27.09-6.36-34.09-13.35-40.44-40.44-.41-1.73-2.87-1.73-3.27,0-6.36,27.09-13.35,34.09-40.44,40.44-1.73.41-1.73,2.86,0,3.27,27.09,6.36,34.09,13.35,40.44,40.44.41,1.73,2.87,1.73,3.27,0,6.36-27.09,13.35-34.09,40.44-40.44,1.73-.41,1.73-2.86,0-3.27Z"/>
    </g>
    <g>
      <path class="st3" d="M563.48,130.83c-.64,2.73-3.05,4.64-5.86,4.64s-5.22-1.91-5.86-4.64c-5.95-25.34-11.86-31.26-37.19-37.21-3.17-.44-6.43-.68-9.78-.68-36.21,0-63.09,26.63-63.09,59.44v.43c0,32.81,26.67,59.01,62.66,59.01s63.09-26.63,63.09-59.44v-.43c0-7.47-1.41-14.59-3.97-21.14v.02h0ZM534.94,152.81c0,16.83-11.27,31.1-30.14,31.1s-30.57-14.7-30.57-31.53v-.43c0-16.83,11.27-31.1,30.14-31.1s30.57,14.7,30.57,31.53v.43Z"/>
      <path class="st1" d="M483.55,58.66c13.54,3.18,17.04,6.67,20.22,20.22.2.86,1.43.86,1.63,0,3.18-13.54,6.67-17.04,20.22-20.22.86-.2.86-1.43,0-1.63-13.54-3.18-17.04-6.67-20.22-20.22-.2-.86-1.43-.86-1.63,0-3.18,13.54-6.67,17.04-20.22,20.22-.86.2-.86,1.43,0,1.63Z"/>
      <path class="st0" d="M599.71,86.12c-27.09-6.36-34.09-13.35-40.44-40.44-.41-1.73-2.87-1.73-3.27,0-6.36,27.09-13.35,34.09-40.44,40.44-1.73.41-1.73,2.86,0,3.27,27.09,6.36,34.09,13.35,40.44,40.44.41,1.73,2.87,1.73,3.27,0,6.36-27.09,13.35-34.09,40.44-40.44,1.73-.41,1.73-2.86,0-3.27Z"/>
    </g>
  </g>
</svg>